<svg width="20" height="21" viewBox="0 0 20 21" fill="none" xmlns="http://www.w3.org/2000/svg">
<path d="M2.66277 18.365H6.19404V12.4796C6.19404 12.1461 6.30705 11.8667 6.53305 11.6415C6.75905 11.4163 7.03841 11.3033 7.37113 11.3025H12.0795C12.413 11.3025 12.6928 11.4155 12.9188 11.6415C13.1448 11.8675 13.2574 12.1468 13.2566 12.4796V18.365H16.7879V7.7712L9.72532 2.4743L2.66277 7.7712V18.365ZM0.308594 18.365V7.7712C0.308594 7.39846 0.392167 7.04533 0.559314 6.71182C0.726461 6.37831 0.956778 6.10366 1.25027 5.88786L8.31281 0.590953C8.72479 0.277063 9.19562 0.120117 9.72532 0.120117C10.255 0.120117 10.7258 0.277063 11.1378 0.590953L18.2004 5.88786C18.4946 6.10366 18.7253 6.37831 18.8925 6.71182C19.0596 7.04533 19.1428 7.39846 19.142 7.7712V18.365C19.142 19.0124 18.9113 19.5668 18.4499 20.0282C17.9885 20.4897 17.4345 20.72 16.7879 20.7192H12.0795C11.746 20.7192 11.4666 20.6062 11.2414 20.3802C11.0162 20.1542 10.9032 19.8748 10.9024 19.5421V13.6567H8.54823V19.5421C8.54823 19.8756 8.43522 20.1554 8.20922 20.3814C7.98322 20.6074 7.70386 20.72 7.37113 20.7192H2.66277C2.01537 20.7192 1.46136 20.4889 1.00072 20.0282C0.540088 19.5676 0.309378 19.0132 0.308594 18.365Z" fill="#929292"/>
</svg>
