<svg width="23" height="17" viewBox="0 0 23 17" fill="none" xmlns="http://www.w3.org/2000/svg">
<path d="M8.13101 12.8312L19.7841 1.17813C20.0591 0.903125 20.38 0.765625 20.7466 0.765625C21.1133 0.765625 21.4341 0.903125 21.7091 1.17813C21.9841 1.45313 22.1216 1.77992 22.1216 2.1585C22.1216 2.53708 21.9841 2.86342 21.7091 3.1375L9.09351 15.7875C8.81851 16.0625 8.49768 16.2 8.13101 16.2C7.76434 16.2 7.44351 16.0625 7.16851 15.7875L1.25601 9.875C0.98101 9.6 0.84901 9.27367 0.86001 8.896C0.87101 8.51833 1.01447 8.19154 1.29038 7.91562C1.5663 7.63971 1.89309 7.50221 2.27076 7.50312C2.64843 7.50404 2.97476 7.64154 3.24976 7.91562L8.13101 12.8312Z" fill="#2174F5"/>
</svg>
