<svg width="19" height="15" viewBox="0 0 19 15" fill="none" xmlns="http://www.w3.org/2000/svg">
<path d="M0.830078 2.86761L9.69224 7.29814L18.5544 2.86761C18.5216 2.30292 18.2741 1.77215 17.8627 1.384C17.4513 0.995843 16.907 0.779681 16.3414 0.779785H3.04313C2.47749 0.779681 1.93322 0.995843 1.52178 1.384C1.11035 1.77215 0.862885 2.30292 0.830078 2.86761Z" fill="currentColor"/>
<path d="M18.5552 5.34204L9.68971 9.77479L0.824219 5.34204V11.8604C0.824219 12.4482 1.05773 13.012 1.47338 13.4276C1.88903 13.8433 2.45277 14.0768 3.04059 14.0768H16.3388C16.9266 14.0768 17.4904 13.8433 17.906 13.4276C18.3217 13.012 18.5552 12.4482 18.5552 11.8604V5.34204Z" fill="currentColor"/>
</svg>
