<svg width="32" height="31" viewBox="0 0 32 31" fill="none" xmlns="http://www.w3.org/2000/svg">
<path d="M26.9515 4.51911C23.8797 1.52072 20.1268 0 15.7981 0C11.429 0 7.66558 1.52244 4.61128 4.52083C1.55172 7.51922 0 11.2151 0 15.5C0 19.7453 1.54997 23.4274 4.60602 26.443C7.66207 29.4672 11.4273 31 15.7981 31C20.1285 31 23.8814 29.4672 26.955 26.4482C30.0357 23.4291 31.5962 19.7453 31.5962 15.5C31.5962 11.2151 30.0339 7.51922 26.9515 4.51911ZM24.473 24.0129C22.4772 25.9746 20.197 27.0923 17.5534 27.4316V18.9444H21.0641V15.5H17.5534V13.0889C17.5534 12.953 17.5807 12.8185 17.6338 12.6931C17.6868 12.5676 17.7645 12.4536 17.8625 12.3576C17.9605 12.2616 18.0768 12.1855 18.2048 12.1337C18.3328 12.0819 18.4699 12.0553 18.6084 12.0556H21.0641V8.61111H18.6119C17.3094 8.61111 16.2229 9.083 15.3522 10.0268C14.4804 10.9683 14.0439 12.121 14.0427 13.485V15.5H10.5321V18.9444H14.0427V27.435C11.3711 27.0992 9.08214 25.9797 7.09685 24.0181C4.68325 21.6346 3.51068 18.848 3.51068 15.5C3.51068 12.1141 4.6815 9.32067 7.09509 6.95778C9.49991 4.59317 12.3471 3.44444 15.7981 3.44444C19.2122 3.44444 22.0506 4.59489 24.4782 6.96294C26.9059 9.32583 28.0855 12.1193 28.0855 15.5C28.0855 18.8428 26.9041 21.6294 24.473 24.0129Z" fill="currentColor"/>
</svg>
