<svg width="185" height="22" viewBox="0 0 185 22" fill="none" xmlns="http://www.w3.org/2000/svg">
<path fill-rule="evenodd" clip-rule="evenodd" d="M19.2833 12.7491H11.5855V8.74882H24.0523C24.1559 9.3244 24.2078 9.92876 24.2078 10.5619C24.2078 16.5767 20.968 21.1237 12.1038 21.1237C3.23983 21.1237 0 16.5767 0 10.5619C0 4.54709 3.23983 0 12.1038 0C19.2833 0 22.7564 2.99302 23.819 7.30987H18.6871C17.78 5.55435 15.7584 4.40319 12.1038 4.40319C6.32405 4.40319 4.66532 6.93574 4.66532 10.5619C4.66532 14.188 6.32405 16.7206 12.1038 16.7206C16.6137 16.7206 18.6094 15.1665 19.2833 12.7491ZM27.2021 0.489253H39.6429C45.7079 0.489253 48.1183 3.39593 48.1183 7.97179C48.1183 11.1374 46.9779 13.4974 44.2565 14.6485L48.3775 20.6346H43.3233L39.7726 15.4543H31.8675V20.6346H27.2021V0.489253ZM31.8675 11.0799H39.6429C42.4681 11.0799 43.453 9.89998 43.453 7.97179C43.453 6.07238 42.4681 4.89243 39.6429 4.89243H31.8675V11.0799ZM62.1182 0C70.9821 0 74.2219 4.51831 74.2219 10.5331C74.2219 16.548 70.9821 21.095 62.1182 21.095C53.2543 21.095 50.0144 16.548 50.0144 10.5331C50.0144 4.51831 53.2543 0 62.1182 0ZM62.1182 16.1163C67.8984 16.1163 69.5568 13.8139 69.5568 10.5331C69.5568 7.28109 67.8984 4.95 62.1182 4.95C56.3379 4.95 54.6795 7.28109 54.6795 10.5331C54.6795 13.8139 56.3379 16.1163 62.1182 16.1163ZM94.5407 0.489253L99.7502 14.3895L104.52 0.489253H109.366L102.575 20.6346H97.1845L91.9233 6.61918L86.6622 20.6346H81.2712L74.4804 0.489253H79.3269L84.0965 14.3895L89.3059 0.489253H94.5407ZM119.456 5.43924H110.799V0.489253H132.752V5.43924H124.121V20.6346H119.456V5.43924ZM139.894 8.17324H152.517V0.489253H157.182V20.6346H152.517V12.9505H139.894V20.6346H135.229V0.489253H139.894V8.17324ZM171.701 10.2741L178.906 0.489253H184.141L174.033 14.5047V20.6346H169.368V14.5047L159.259 0.489253H164.47L171.701 10.2741Z" fill="white"/>
</svg>
