<svg width="31" height="31" viewBox="0 0 31 31" fill="currentColor" xmlns="http://www.w3.org/2000/svg">
<path fill-rule="evenodd" clip-rule="evenodd" d="M9.60667 2.94678C6.14021 2.94678 3.33008 5.75691 3.33008 9.22337V21.7766C3.33008 25.243 6.14021 28.0532 9.60667 28.0532H22.1599C25.6263 28.0532 28.4365 25.243 28.4365 21.7766V9.22337C28.4365 5.75691 25.6263 2.94678 22.1599 2.94678H9.60667ZM23.3046 9.22409C24.2034 9.22409 24.932 8.49547 24.932 7.59667C24.932 6.69788 24.2034 5.96926 23.3046 5.96926C22.4058 5.96926 21.6772 6.69788 21.6772 7.59667C21.6772 8.49547 22.4058 9.22409 23.3046 9.22409ZM15.886 9.22524C14.2214 9.22524 12.6249 9.88653 11.4478 11.0636C10.2707 12.2407 9.60942 13.8372 9.60942 15.5018C9.60942 17.1665 10.2707 18.763 11.4478 19.9401C12.6249 21.1172 14.2214 21.7784 15.886 21.7784C17.5507 21.7784 19.1471 21.1172 20.3242 19.9401C21.5013 18.763 22.1626 17.1665 22.1626 15.5018C22.1626 13.8372 21.5013 12.2407 20.3242 11.0636C19.1471 9.88653 17.5507 9.22524 15.886 9.22524ZM15.886 19.5781C14.8046 19.5781 13.7674 19.1485 13.0027 18.3838C12.238 17.6191 11.8084 16.5819 11.8084 15.5005C11.8084 14.419 12.238 13.3819 13.0027 12.6172C13.7674 11.8525 14.8046 11.4229 15.886 11.4229C16.9675 11.4229 18.0046 11.8525 18.7693 12.6172C19.534 13.3819 19.9636 14.419 19.9636 15.5005C19.9636 16.5819 19.534 17.6191 18.7693 18.3838C18.0046 19.1485 16.9675 19.5781 15.886 19.5781Z" />
</svg>
