<svg width="38" height="38" viewBox="0 0 38 38" fill="none" xmlns="http://www.w3.org/2000/svg">
<path d="M29.1303 6.57047C28.6796 6.57047 28.2391 6.70412 27.8643 6.95451C27.4896 7.20491 27.1975 7.5608 27.025 7.9772C26.8526 8.39359 26.8074 8.85177 26.8954 9.29381C26.9833 9.73585 27.2003 10.1419 27.519 10.4606C27.8377 10.7793 28.2437 10.9963 28.6858 11.0842C29.1278 11.1722 29.586 11.127 30.0024 10.9546C30.4188 10.7821 30.7747 10.49 31.0251 10.1153C31.2755 9.74052 31.4091 9.29994 31.4091 8.84924C31.4091 8.24488 31.169 7.66526 30.7417 7.23791C30.3143 6.81055 29.7347 6.57047 29.1303 6.57047ZM37.8657 11.166C37.8284 9.59045 37.5333 8.03164 36.9921 6.55148C36.5114 5.284 35.7596 4.13685 34.7893 3.19029C33.849 2.21692 32.6996 1.47015 31.4281 1.00646C29.952 0.448465 28.3914 0.14662 26.8136 0.113939C24.8007 -1.06114e-07 24.155 0 18.9898 0C13.8246 0 13.1789 -1.06114e-07 11.166 0.113939C9.58824 0.14662 8.02764 0.448465 6.55148 1.00646C5.28292 1.47599 4.13477 2.22196 3.19029 3.19029C2.21692 4.13062 1.47015 5.28 1.00646 6.55148C0.448465 8.02764 0.14662 9.58824 0.113939 11.166C-1.06114e-07 13.1789 0 13.8246 0 18.9898C0 24.155 -1.06114e-07 24.8007 0.113939 26.8136C0.14662 28.3914 0.448465 29.952 1.00646 31.4281C1.47015 32.6996 2.21692 33.849 3.19029 34.7893C4.13477 35.7576 5.28292 36.5036 6.55148 36.9731C8.02764 37.5311 9.58824 37.833 11.166 37.8657C13.1789 37.9796 13.8246 37.9796 18.9898 37.9796C24.155 37.9796 24.8007 37.9796 26.8136 37.8657C28.3914 37.833 29.952 37.5311 31.4281 36.9731C32.6996 36.5094 33.849 35.7627 34.7893 34.7893C35.762 33.8447 36.5142 32.697 36.9921 31.4281C37.5333 29.9479 37.8284 28.3891 37.8657 26.8136C37.8657 24.8007 37.9796 24.155 37.9796 18.9898C37.9796 13.8246 37.9796 13.1789 37.8657 11.166ZM34.4475 26.5857C34.434 27.7912 34.2157 28.9856 33.8018 30.1178C33.4986 30.9442 33.0116 31.691 32.3776 32.3016C31.7613 32.9288 31.0162 33.4147 30.1938 33.7259C29.0615 34.1397 27.8671 34.3581 26.6617 34.3715C24.7627 34.4665 24.0601 34.4855 19.0658 34.4855C14.0714 34.4855 13.3688 34.4855 11.4698 34.3715C10.2181 34.3961 8.97164 34.2034 7.78582 33.8018C6.99999 33.4739 6.28924 32.9893 5.69694 32.3776C5.06665 31.7675 4.58574 31.0202 4.29169 30.1938C3.82653 29.0457 3.56932 27.8239 3.5321 26.5857C3.5321 24.6867 3.41816 23.9841 3.41816 18.9898C3.41816 13.9955 3.41816 13.2929 3.5321 11.3939C3.53903 10.1614 3.76405 8.93987 4.19674 7.78582C4.53105 6.98428 5.04419 6.26978 5.69694 5.69694C6.27218 5.04215 6.98565 4.52327 7.78582 4.17775C8.94305 3.75899 10.1632 3.54064 11.3939 3.5321C13.2929 3.5321 13.9955 3.41816 18.9898 3.41816C23.9841 3.41816 24.6867 3.41816 26.5857 3.5321C27.7912 3.54556 28.9856 3.76389 30.1178 4.17775C30.9808 4.49802 31.7553 5.01871 32.3776 5.69694C32.998 6.28187 33.484 6.99459 33.8018 7.78582C34.2243 8.94207 34.4427 10.1629 34.4475 11.3939C34.5424 13.2929 34.5614 13.9955 34.5614 18.9898C34.5614 23.9841 34.5424 24.6867 34.4475 26.5857ZM18.9898 9.24803C17.0639 9.25178 15.1823 9.82632 13.5827 10.899C11.9832 11.9718 10.7375 13.4945 10.0031 15.2749C9.26871 17.0553 9.0785 19.0135 9.45653 20.9019C9.83456 22.7904 10.7639 24.5244 12.127 25.8849C13.4902 27.2455 15.226 28.1714 17.1152 28.5457C19.0044 28.9201 20.9622 28.7261 22.7412 27.9882C24.5201 27.2503 26.0405 26.0017 27.1101 24.4001C28.1797 22.7984 28.7505 20.9157 28.7505 18.9898C28.7531 17.7082 28.5022 16.4387 28.0123 15.2544C27.5224 14.0701 26.8033 12.9944 25.8961 12.089C24.989 11.1836 23.9119 10.4666 22.7266 9.979C21.5414 9.49144 20.2714 9.24302 18.9898 9.24803ZM18.9898 25.3134C17.7391 25.3134 16.5165 24.9425 15.4766 24.2477C14.4367 23.5528 13.6262 22.5652 13.1475 21.4097C12.6689 20.2542 12.5437 18.9828 12.7877 17.7561C13.0317 16.5295 13.634 15.4027 14.5183 14.5183C15.4027 13.634 16.5295 13.0317 17.7561 12.7877C18.9828 12.5437 20.2542 12.6689 21.4097 13.1475C22.5652 13.6262 23.5528 14.4367 24.2477 15.4766C24.9425 16.5165 25.3134 17.7391 25.3134 18.9898C25.3134 19.8202 25.1498 20.6425 24.832 21.4097C24.5143 22.1769 24.0485 22.8741 23.4613 23.4613C22.8741 24.0485 22.1769 24.5143 21.4097 24.832C20.6425 25.1498 19.8202 25.3134 18.9898 25.3134Z" fill="white"/>
</svg>
