<svg width="38" height="37" viewBox="0 0 38 37" fill="none" xmlns="http://www.w3.org/2000/svg">
<path d="M31.6497 0C33.3285 0 34.9385 0.633404 36.1256 1.76087C37.3127 2.88833 37.9796 4.41751 37.9796 6.01198V30.0599C37.9796 31.6544 37.3127 33.1836 36.1256 34.311C34.9385 35.4385 33.3285 36.0719 31.6497 36.0719H6.32993C4.65113 36.0719 3.04109 35.4385 1.85399 34.311C0.666902 33.1836 0 31.6544 0 30.0599V6.01198C0 4.41751 0.666902 2.88833 1.85399 1.76087C3.04109 0.633404 4.65113 0 6.32993 0H31.6497ZM31.6497 4.00799H6.32993C5.77033 4.00799 5.23365 4.21912 4.83795 4.59494C4.44226 4.97077 4.21995 5.48049 4.21995 6.01198V30.0599C4.21995 30.5914 4.44226 31.1011 4.83795 31.4769C5.23365 31.8528 5.77033 32.0639 6.32993 32.0639H31.6497C32.2093 32.0639 32.7459 31.8528 33.1416 31.4769C33.5373 31.1011 33.7596 30.5914 33.7596 30.0599V6.01198C33.7596 5.48049 33.5373 4.97077 33.1416 4.59494C32.7459 4.21912 32.2093 4.00799 31.6497 4.00799ZM10.5499 14.028C11.0667 14.028 11.5655 14.2082 11.9517 14.5344C12.3379 14.8606 12.5846 15.31 12.6451 15.7975L12.6599 16.032V26.0519C12.6593 26.5627 12.4533 27.054 12.0842 27.4254C11.715 27.7968 11.2104 28.0203 10.6735 28.0502C10.1367 28.0802 9.60804 27.9143 9.19563 27.5865C8.78323 27.2586 8.5182 26.7936 8.45468 26.2864L8.43991 26.0519V16.032C8.43991 15.5005 8.66221 14.9907 9.05791 14.6149C9.4536 14.2391 9.99029 14.028 10.5499 14.028ZM16.8798 12.024C17.374 12.0239 17.8525 12.1885 18.2319 12.4892C18.6113 12.7899 18.8676 13.2075 18.956 13.6692C19.381 13.4361 19.82 13.2267 20.2706 13.042C21.6779 12.4709 23.7858 12.1562 25.689 12.7234C26.687 13.024 27.6892 13.5851 28.4319 14.541C29.0966 15.3927 29.4553 16.4287 29.527 17.5931L29.5397 18.0359V26.0519C29.5391 26.5627 29.3332 27.054 28.964 27.4254C28.5948 27.7968 28.0902 28.0203 27.5534 28.0502C27.0165 28.0802 26.4879 27.9143 26.0755 27.5865C25.6631 27.2586 25.398 26.7936 25.3345 26.2864L25.3197 26.0519V18.0359C25.3197 17.3746 25.1509 17.066 25.0412 16.9237C24.8835 16.7379 24.6666 16.6057 24.423 16.547C23.6887 16.3265 22.6316 16.4428 21.929 16.7273C20.874 17.1562 19.9076 17.8295 19.2493 18.4528L18.9898 18.7173V26.0519C18.9892 26.5627 18.7833 27.054 18.4141 27.4254C18.0449 27.7968 17.5403 28.0203 17.0035 28.0502C16.4666 28.0802 15.938 27.9143 15.5256 27.5865C15.1132 27.2586 14.8481 26.7936 14.7846 26.2864L14.7698 26.0519V14.028C14.7698 13.4965 14.9921 12.9867 15.3878 12.6109C15.7835 12.2351 16.3202 12.024 16.8798 12.024ZM10.5499 8.01598C11.1095 8.01598 11.6462 8.22711 12.0419 8.60293C12.4376 8.97875 12.6599 9.48848 12.6599 10.02C12.6599 10.5515 12.4376 11.0612 12.0419 11.437C11.6462 11.8128 11.1095 12.024 10.5499 12.024C9.99029 12.024 9.4536 11.8128 9.05791 11.437C8.66221 11.0612 8.43991 10.5515 8.43991 10.02C8.43991 9.48848 8.66221 8.97875 9.05791 8.60293C9.4536 8.22711 9.99029 8.01598 10.5499 8.01598Z" fill="white"/>
</svg>
