<svg width="240" height="37" viewBox="0 0 240 37" fill="none" xmlns="http://www.w3.org/2000/svg">
<g clip-path="url(#clip0_274_6845)">
<path fill-rule="evenodd" clip-rule="evenodd" d="M74.7227 13.2268H67.025V9.56449H79.4917C79.5953 10.0914 79.6472 10.6448 79.6472 11.2244C79.6472 16.7311 76.4074 20.8941 67.5433 20.8941C58.6793 20.8941 55.4395 16.7311 55.4395 11.2244C55.4395 5.71768 58.6793 1.55469 67.5433 1.55469C74.7227 1.55469 78.1958 4.29489 79.2585 8.24709H74.1266C73.2195 6.63986 71.1978 5.58594 67.5433 5.58594C61.7635 5.58594 60.1048 7.90456 60.1048 11.2244C60.1048 14.5442 61.7635 16.8629 67.5433 16.8629C72.0531 16.8629 74.0488 15.4401 74.7227 13.2268ZM82.6416 2.00261H95.0824C101.147 2.00261 103.558 4.66376 103.558 8.85309C103.558 11.7513 102.417 13.9119 99.6959 14.9658L103.817 20.4462H98.7628L95.2121 15.7036H87.3069V20.4462H82.6416V2.00261ZM87.3069 11.6987H95.0824C97.9075 11.6987 98.8924 10.6184 98.8924 8.85309C98.8924 7.11412 97.9075 6.03385 95.0824 6.03385H87.3069V11.6987ZM117.558 1.55469C126.422 1.55469 129.661 5.69133 129.661 11.198C129.661 16.7048 126.422 20.8678 117.558 20.8678C108.694 20.8678 105.454 16.7048 105.454 11.198C105.454 5.69133 108.694 1.55469 117.558 1.55469ZM117.558 16.3096C123.338 16.3096 124.996 14.2017 124.996 11.198C124.996 8.22074 123.338 6.08655 117.558 6.08655C111.777 6.08655 110.119 8.22074 110.119 11.198C110.119 14.2017 111.777 16.3096 117.558 16.3096ZM149.98 2.00261L155.19 14.7287L159.959 2.00261H164.806L158.015 20.4462H152.624L147.363 7.61474L142.102 20.4462H136.711L129.92 2.00261H134.766L139.536 14.7287L144.745 2.00261H149.98ZM174.896 6.53447H166.238V2.00261H188.191V6.53447H179.561V20.4462H174.896V6.53447ZM195.334 9.03752H207.956V2.00261H212.622V20.4462H207.956V13.4113H195.334V20.4462H190.669V2.00261H195.334V9.03752ZM227.14 10.9609L234.346 2.00261H239.58L229.473 14.8341V20.4462H224.808V14.8341L214.699 2.00261H219.909L227.14 10.9609Z" fill="#2174F5"/>
<path fill-rule="evenodd" clip-rule="evenodd" d="M22.5945 5.74625C27.4665 7.53868 31.25 12.1751 31.242 18.1739C31.242 18.2006 31.2515 18.2171 31.271 18.2238C31.2781 18.2265 31.2865 18.2277 31.2962 18.2277L35.8123 18.2245C35.8498 18.2245 35.8681 18.206 35.8692 18.1679C35.9422 12.7801 33.4167 7.55732 29.2682 4.20888C27.6664 2.91604 25.9485 1.94139 24.1143 1.28503C22.2294 0.610291 20.2216 0.271749 18.0915 0.269544C8.12707 0.257586 0.0822801 8.66673 0.414212 18.7686C0.663882 26.3738 5.50737 32.7106 12.2284 35.1147C14.0673 35.7726 16.0469 36.1361 18.1114 36.1505C18.1447 36.1505 18.1618 36.1332 18.1618 36.0995L18.1694 31.5509C18.1694 31.5342 18.1632 31.5181 18.1519 31.5062C18.1448 31.4987 18.1363 31.4932 18.1268 31.4899C18.1206 31.4877 18.1142 31.4863 18.1076 31.4861C16.5304 31.4277 15.0684 31.1578 13.7216 30.6763C11.4816 29.875 9.56037 28.4883 7.95788 26.5162C2.99286 20.4031 4.58162 11.1787 11.1644 6.99091C14.798 4.67974 18.9038 4.43583 22.4514 5.69457C22.4992 5.71153 22.5469 5.72875 22.5945 5.74625Z" fill="#2174F5"/>
<path fill-rule="evenodd" clip-rule="evenodd" d="M58.7981 34.0767H61.5086C61.2713 34.8561 60.5686 35.357 58.9806 35.357C56.9455 35.357 56.3615 34.5406 56.3615 33.3717C56.3615 32.2027 56.9455 31.3863 58.9806 31.3863C60.2674 31.3863 60.9793 31.7574 61.2987 32.3233H63.1057C62.7315 30.9317 61.5086 29.9668 58.9806 29.9668C55.8595 29.9668 54.7188 31.4326 54.7188 33.3717C54.7188 35.3107 55.8595 36.7765 58.9806 36.7765C62.1018 36.7765 63.2425 35.3107 63.2425 33.3717C63.2425 33.1676 63.2243 32.9727 63.1878 32.7872H58.7981V34.0767ZM68.6775 30.1246H64.2969V36.6188H65.9397V34.9488H68.7231L69.9734 36.6188H71.753L70.3019 34.6891C71.2602 34.318 71.6618 33.5572 71.6618 32.5366C71.6618 31.0616 70.813 30.1246 68.6775 30.1246ZM68.6775 33.5386H65.9397V31.544H68.6775C69.6723 31.544 70.0191 31.9244 70.0191 32.5366C70.0191 33.1582 69.6723 33.5386 68.6775 33.5386ZM80.8533 33.3624C80.8533 31.4234 79.7125 29.9668 76.5914 29.9668C73.4702 29.9668 72.3294 31.4234 72.3294 33.3624C72.3294 35.3013 73.4702 36.7672 76.5914 36.7672C79.7125 36.7672 80.8533 35.3013 80.8533 33.3624ZM79.2105 33.3624C79.2105 34.42 78.6265 35.1622 76.5914 35.1622C74.5562 35.1622 73.9722 34.42 73.9722 33.3624C73.9722 32.314 74.5562 31.5625 76.5914 31.5625C78.6265 31.5625 79.2105 32.314 79.2105 33.3624ZM89.8422 34.6055L88.0078 30.1246H86.1643L84.33 34.6055L82.6507 30.1246H80.9442L83.3352 36.6188H85.2335L87.086 32.1007L88.9387 36.6188H90.8369L93.228 30.1246H91.5214L89.8422 34.6055ZM93.7324 31.7203H96.7806V36.6188H98.4233V31.7203H101.462V30.1246H93.7324V31.7203ZM108.422 32.6016H103.977V30.1246H102.335V36.6188H103.977V34.1417H108.422V36.6188H110.064V30.1246H108.422V32.6016ZM118.918 30.1246H114.866V36.6188H118.918C121.583 36.6188 122.778 35.3107 122.778 33.3717C122.778 31.4326 121.583 30.1246 118.918 30.1246ZM118.918 35.0138H116.508V31.7203H118.918C120.588 31.7203 121.135 32.3882 121.135 33.3717C121.135 34.3458 120.588 35.0138 118.918 35.0138ZM123.84 36.6188H125.483V30.1246H123.84V36.6188ZM130.631 34.0767H133.341C133.104 34.8561 132.401 35.357 130.814 35.357C128.779 35.357 128.194 34.5406 128.194 33.3717C128.194 32.2027 128.779 31.3863 130.814 31.3863C132.101 31.3863 132.813 31.7574 133.131 32.3233H134.939C134.564 30.9317 133.341 29.9668 130.814 29.9668C127.693 29.9668 126.552 31.4326 126.552 33.3717C126.552 35.3107 127.693 36.7765 130.814 36.7765C133.935 36.7765 135.076 35.3107 135.076 33.3717C135.076 33.1676 135.058 32.9727 135.021 32.7872H130.631V34.0767ZM136.13 36.6188H137.772V30.1246H136.13V36.6188ZM138.659 31.7203H141.707V36.6188H143.35V31.7203H146.389V30.1246H138.659V31.7203ZM146.968 36.6188L147.597 35.4405H151.559L152.189 36.6188H153.959L150.582 30.1246H148.565L145.197 36.6188H146.968ZM149.578 31.7481L150.801 34.0304H148.355L149.578 31.7481ZM156.319 30.1246H154.676V36.6188H161.311V35.0787H156.319V30.1246ZM170.283 33.6778L167.026 30.1246H165.656V36.6188H167.299V32.5274L170.283 35.8116L173.268 32.5274V36.6188H174.911V30.1246H173.541L170.283 33.6778ZM177.412 36.6188L178.042 35.4405H182.003L182.633 36.6188H184.403L181.026 30.1246H179.009L175.642 36.6188H177.412ZM180.023 31.7481L181.246 34.0304H178.799L180.023 31.7481ZM189.502 30.1246H185.121V36.6188H186.763V34.9488H189.547L190.797 36.6188H192.577L191.126 34.6891C192.085 34.318 192.485 33.5572 192.485 32.5366C192.485 31.0616 191.637 30.1246 189.502 30.1246ZM189.502 33.5386H186.763V31.544H189.502C190.496 31.544 190.843 31.9244 190.843 32.5366C190.843 33.1582 190.496 33.5386 189.502 33.5386ZM199.649 30.1246L197.441 32.6016H195.159V30.1246H193.516V36.6188H195.159V34.1417H197.441L199.649 36.6188H201.675L198.809 33.3717L201.675 30.1246H199.649ZM209.308 30.1246H202.491V36.6188H209.308V35.2086H204.133V34.021H209.062V32.7315H204.133V31.544H209.308V30.1246ZM209.914 31.7203H212.961V36.6188H214.604V31.7203H217.643V30.1246H209.914V31.7203ZM218.515 36.6188H220.157V30.1246H218.515V36.6188ZM227.588 34.3087L222.87 30.1246H221.5V36.6188H223.144V32.4253L227.862 36.6188H229.23V30.1246H227.588V34.3087ZM234.37 34.0767H237.08C236.844 34.8561 236.14 35.357 234.553 35.357C232.518 35.357 231.933 34.5406 231.933 33.3717C231.933 32.2027 232.518 31.3863 234.553 31.3863C235.84 31.3863 236.552 31.7574 236.87 32.3233H238.678C238.304 30.9317 237.08 29.9668 234.553 29.9668C231.432 29.9668 230.29 31.4326 230.29 33.3717C230.29 35.3107 231.432 36.7765 234.553 36.7765C237.674 36.7765 238.815 35.3107 238.815 33.3717C238.815 33.1676 238.797 32.9727 238.76 32.7872H234.37V34.0767Z" fill="currentColor"/>
<path fill-rule="evenodd" clip-rule="evenodd" d="M33.1009 36.5612C33.1077 36.5661 33.1155 36.5692 33.1238 36.5704C33.1278 36.5714 33.1319 36.5719 33.136 36.5719H42.6858C42.6941 36.5719 42.7023 36.5699 42.7098 36.566C42.7143 36.5635 42.7186 36.5604 42.7223 36.5567L42.7252 36.5535L42.7283 36.5494C42.733 36.5425 42.7361 36.5345 42.737 36.5261C42.7381 36.5176 42.737 36.5091 42.7341 36.5012L36.7711 20.2711C36.7674 20.2611 36.7608 20.2526 36.7521 20.2466C36.7455 20.2419 36.7379 20.239 36.73 20.2378C36.7259 20.2369 36.7217 20.2363 36.7173 20.2363H27.2943C27.2861 20.2362 27.2778 20.2381 27.2703 20.2419C27.263 20.2457 27.2565 20.2512 27.2517 20.258C27.2468 20.2649 27.2437 20.2728 27.2425 20.2812C27.2413 20.2894 27.2422 20.298 27.2449 20.3059L33.0822 36.5361C33.0857 36.5461 33.0922 36.5549 33.1009 36.5612ZM15.8673 20.2904C15.8617 20.2905 15.8561 20.2918 15.8511 20.2945C15.8461 20.2971 15.8418 20.301 15.8385 20.3056C15.8352 20.3103 15.8331 20.3157 15.8324 20.3214C15.8316 20.3271 15.8322 20.3329 15.8341 20.3382L21.6692 36.5738C21.6717 36.5808 21.6761 36.5868 21.6821 36.5911C21.6841 36.5926 21.6862 36.5938 21.6885 36.5947C21.6917 36.5962 21.6951 36.5971 21.6986 36.5975C21.7017 36.5984 21.7048 36.5988 21.708 36.5988H31.2942C31.2972 36.5987 31.3 36.5983 31.3029 36.5975C31.3055 36.5968 31.3082 36.5957 31.3106 36.5944C31.3155 36.5916 31.3198 36.5877 31.3229 36.5828C31.3261 36.578 31.3281 36.5725 31.3287 36.5669C31.3294 36.5611 31.3285 36.5553 31.3265 36.5499L25.3624 20.3143C25.3599 20.3075 25.3552 20.3018 25.3493 20.2977C25.3446 20.2944 25.3391 20.2923 25.3334 20.2917L25.3301 20.2909C25.328 20.2906 25.3258 20.2904 25.3237 20.2904H15.8673Z" fill="currentColor"/>
</g>
<defs>
<clipPath id="clip0_274_6845">
<rect width="240" height="37" fill="white"/>
</clipPath>
</defs>
</svg>
