<svg width="23" height="29" viewBox="0 0 23 29" fill="currentColor" xmlns="http://www.w3.org/2000/svg">
<path fill-rule="evenodd" clip-rule="evenodd" d="M0 12.2241C0 6.00079 5.20054 0.970703 11.4911 0.970703C17.7995 0.970703 23 6.00079 23 12.2241C23 15.3602 21.8595 18.2716 19.9823 20.7393C17.9113 23.4613 15.3588 25.833 12.4857 27.6946C11.8281 28.1248 11.2347 28.1573 10.513 27.6946C7.62347 25.833 5.07094 23.4613 3.01774 20.7393C1.13915 18.2716 0 15.3602 0 12.2241ZM7.70765 12.5752C7.70765 14.6601 9.40888 16.2998 11.4948 16.2998C13.5821 16.2998 15.2997 14.6601 15.2997 12.5752C15.2997 10.5066 13.5821 8.78711 11.4948 8.78711C9.40888 8.78711 7.70765 10.5066 7.70765 12.5752Z" />
</svg>
