<svg width="20" height="20" viewBox="0 0 20 20" fill="none" xmlns="http://www.w3.org/2000/svg">
<path d="M1.40388 7.88669C3.56943 12.6015 7.41657 16.3385 12.1923 18.3661L12.9592 18.7078C13.8085 19.086 14.764 19.1523 15.6573 18.895C16.5506 18.6378 17.3245 18.0734 17.8426 17.3015L18.8452 15.8083C19.0021 15.5741 19.0656 15.2897 19.0232 15.011C18.9808 14.7323 18.8356 14.4796 18.6162 14.3027L15.2193 11.5622C15.101 11.4668 14.9647 11.3963 14.8184 11.3549C14.6722 11.3136 14.5191 11.3022 14.3684 11.3215C14.2177 11.3407 14.0724 11.3903 13.9413 11.4671C13.8102 11.5439 13.6959 11.6465 13.6054 11.7685L12.5543 13.1862C9.85623 11.8536 7.67228 9.66929 6.34022 6.97093L7.75672 5.91983C7.8788 5.82933 7.98133 5.7151 8.05816 5.58399C8.13499 5.45288 8.18453 5.3076 8.2038 5.15687C8.22308 5.00613 8.2117 4.85306 8.17033 4.70684C8.12897 4.56061 8.05849 4.42426 7.96311 4.30596L5.22258 0.909052C5.04562 0.689644 4.79292 0.544452 4.51426 0.502078C4.23559 0.459703 3.95115 0.523218 3.71698 0.68011L2.21363 1.68835C1.43704 2.20914 0.870535 2.98871 0.615048 3.88818C0.359561 4.78766 0.431679 5.74862 0.818556 6.59988L1.40388 7.88669Z" fill="currentColor"/>
</svg>
