<svg width="63" height="63" viewBox="0 0 63 63" fill="none" xmlns="http://www.w3.org/2000/svg">
<circle opacity="0.38" cx="31.4196" cy="31.4196" r="31.4196" fill="black"/>
<path fill-rule="evenodd" clip-rule="evenodd" d="M26.384 23.337C26.4101 23.1028 26.4873 22.8784 26.6094 22.6815C26.7314 22.4846 26.895 22.3207 27.087 22.2029C27.279 22.085 27.4943 22.0165 27.7156 22.0026C27.9369 21.9888 28.1582 22.03 28.3619 22.1231C29.3916 22.5913 31.6992 23.7041 34.6274 25.5017C37.5565 27.3003 39.6169 28.871 40.5118 29.5836C41.2759 30.1931 41.2778 31.4018 40.5128 32.0133C39.6266 32.7218 37.5914 34.2719 34.6274 36.0932C31.6605 37.9145 29.38 39.0138 28.36 39.4759C27.4815 39.875 26.4984 39.2696 26.384 38.262C26.2502 37.0843 26 34.4101 26 30.7985C26 27.1889 26.2492 24.5157 26.384 23.337Z" fill="white"/>
</svg>
