<svg width="31" height="31" viewBox="0 0 31 31" fill="currentColor" xmlns="http://www.w3.org/2000/svg">
<path d="M5.03453 14.1239C5.03453 14.1239 15.5833 9.43926 19.2418 7.78969C20.6442 7.12992 25.4003 5.01846 25.4003 5.01846C25.4003 5.01846 27.5955 4.09478 27.4125 6.3381C27.3515 7.26187 26.8637 10.4949 26.3759 13.9919C25.6442 18.9406 24.8515 24.351 24.8515 24.351C24.8515 24.351 24.7296 25.8686 23.693 26.1325C22.6564 26.3964 20.9491 25.2088 20.6442 24.9448C20.4003 24.7469 16.0711 21.7777 14.4857 20.3261C14.0589 19.9303 13.5711 19.1385 14.5466 18.2148C16.7418 16.0374 19.3637 13.3322 20.9491 11.6167C21.6808 10.8248 22.4125 8.97737 19.3637 11.2207C15.0345 14.4538 10.7662 17.489 10.7662 17.489C10.7662 17.489 9.79059 18.1487 7.96135 17.5549C6.13203 16.9611 3.99789 16.1693 3.99789 16.1693C3.99789 16.1693 2.53456 15.1796 5.03453 14.1239Z" />
</svg>
