<svg width="30" height="35" viewBox="0 0 30 35" fill="none" xmlns="http://www.w3.org/2000/svg">
<path d="M15.6726 0.0286233C17.5474 0 19.4079 0.0143117 21.2684 0C21.3829 2.18968 22.1701 4.4223 23.773 5.96796C25.3759 7.55656 27.6371 8.28645 29.8411 8.52975V14.2974C27.7802 14.2258 25.705 13.7964 23.8302 12.9091C23.0144 12.537 22.2559 12.0647 21.5117 11.5781C21.4974 15.7571 21.526 19.9361 21.4831 24.1008C21.3686 26.1045 20.7103 28.0938 19.551 29.7396C17.6762 32.4875 14.4274 34.2764 11.0928 34.3337C9.04626 34.4482 6.99969 33.89 5.25367 32.8596C2.36272 31.1565 0.330459 28.0365 0.0299138 24.6876C0.00129047 23.972 -0.0130212 23.2565 0.0156021 22.5552C0.273212 19.836 1.61851 17.2312 3.70801 15.4566C6.08375 13.3957 9.40405 12.4082 12.5097 12.995C12.5383 15.1131 12.4524 17.2312 12.4524 19.3494C11.0356 18.8914 9.37543 19.0202 8.13032 19.8789C7.22868 20.4657 6.54172 21.3673 6.18393 22.3834C5.88338 23.1133 5.96925 23.9148 5.98357 24.6876C6.32705 27.0347 8.58829 29.0097 10.9926 28.7951C12.5956 28.7808 14.1269 27.8505 14.957 26.4909C15.2289 26.0186 15.5294 25.532 15.5438 24.9739C15.6869 22.4121 15.6296 19.8646 15.6439 17.3028C15.6582 11.5352 15.6296 5.78191 15.6726 0.0286233Z" fill="currentColor"/>
</svg>
