<svg width="35" height="34" viewBox="0 0 35 34" fill="none" xmlns="http://www.w3.org/2000/svg">
<path d="M17.4041 28.6584L10.8916 32.4864C10.3814 32.787 9.79731 32.9458 9.20203 32.9458C8.60675 32.9458 8.02268 32.787 7.51241 32.4864L2.59119 29.5913C2.10688 29.306 1.70591 28.9029 1.42714 28.4211C1.14837 27.9392 1.00124 27.3949 1 26.8409V21.6297C1.00124 21.0758 1.14837 20.5315 1.42714 20.0496C1.70591 19.5678 2.10688 19.1647 2.59119 18.8794L9.20203 14.9871L17.4041 19.8123M17.4041 28.6584V19.8123M17.4041 28.6584L23.9165 32.4864C24.4267 32.787 25.0108 32.9458 25.6061 32.9458C26.2014 32.9458 26.7854 32.787 27.2957 32.4864L32.2169 29.5913C32.7012 29.306 33.1022 28.9029 33.381 28.4211C33.6598 27.9392 33.8069 27.3949 33.8081 26.8409V21.6297C33.8069 21.0758 33.6598 20.5315 33.381 20.0496C33.1022 19.5678 32.7012 19.1647 32.2169 18.8794L25.6061 14.9871L17.4041 19.8123M17.4041 19.8123L9.20203 24.6374M17.4041 19.8123L25.6061 24.6374M9.20203 24.6374L1.42651 20.0535M9.20203 24.6374V32.9529M25.6061 24.6374L33.3816 20.0535M25.6061 24.6374V32.9529" stroke="white" stroke-width="2" stroke-linecap="round" stroke-linejoin="round"/>
<path d="M17.4032 19.8113L9.20117 14.9861V7.9574C9.20241 7.40342 9.34954 6.85915 9.62831 6.37729C9.90708 5.89544 10.308 5.49234 10.7924 5.20704L15.7136 2.31193C16.2239 2.01134 16.8079 1.85254 17.4032 1.85254C17.9985 1.85254 18.5825 2.01134 19.0928 2.31193L24.014 5.20704C24.4984 5.49234 24.8993 5.89544 25.1781 6.37729C25.4569 6.85915 25.604 7.40342 25.6052 7.9574V14.9861L17.4032 19.8113ZM17.4032 19.8113V10.9651M17.4032 10.9651L9.62768 6.38117M17.4032 10.9651L25.1787 6.38117" stroke="white" stroke-width="2" stroke-linecap="round" stroke-linejoin="round"/>
</svg>
