<svg width="32" height="36" viewBox="0 0 32 36" fill="none" xmlns="http://www.w3.org/2000/svg">
<path d="M15.5071 0.853293C16.049 0.853293 16.5826 0.89033 17.0789 0.977477C17.568 1.04384 18.0504 1.15612 18.5204 1.31299C18.9892 1.46114 19.4538 1.65214 19.9143 1.88599C20.3631 2.11039 20.8243 2.3849 21.2855 2.68338C22.0652 3.20626 22.8325 3.62893 23.6142 3.96662C25.1528 4.61683 26.7804 5.003 28.4351 5.11043C29.272 5.17579 30.1385 5.20919 31.0347 5.21065V13.9254C31.0347 15.5797 30.8341 17.1527 30.4329 18.6444C30.0474 20.1176 29.4998 21.5383 28.8011 22.8775C28.1055 24.215 27.2823 25.4742 26.3442 26.6358C25.3923 27.8242 24.3611 28.9397 23.2585 29.9735C22.1404 31.0091 20.9642 31.973 19.7365 32.8602C18.5066 33.7608 17.2699 34.5908 16.0262 35.3505L15.5299 35.662L15.0335 35.3505C13.7578 34.5726 12.5118 33.7419 11.2985 32.8602C10.0642 31.9826 8.88747 31.0181 7.77646 29.9735C6.67455 28.9396 5.64407 27.8242 4.69287 26.6358C3.75797 25.4688 2.93109 24.2103 2.22351 22.8775C1.53743 21.532 0.990382 20.1128 0.591755 18.6444C0.190666 17.1073 -0.00835207 15.5195 0.000268475 13.9254V5.21065C0.896461 5.20919 1.7637 5.17579 2.60198 5.11043C3.42866 5.05123 4.24996 4.92669 5.05893 4.73787C5.85102 4.55051 6.64312 4.30214 7.42281 3.96662C8.23167 3.62219 9.00732 3.19685 9.73912 2.69645C10.6491 2.07335 11.5715 1.61365 12.4815 1.31081C13.4616 0.994666 14.4822 0.840329 15.5071 0.853293ZM28.9542 7.35229C27.3887 7.27157 25.8378 6.99586 24.334 6.53092C22.8386 6.05978 21.414 5.3681 20.1025 4.47643C19.4221 4.00716 18.6838 3.63843 17.9083 3.38056C17.1331 3.13428 16.3271 3.01236 15.5175 3.0189C14.7018 3.01366 13.8899 3.13553 13.1081 3.38056C12.3316 3.63075 11.5944 4 10.92 4.47643C9.60587 5.37207 8.17772 6.06673 6.67828 6.53964C5.21266 6.98845 3.67603 7.26296 2.0684 7.36318V13.9362C2.0684 15.3785 2.24626 16.7642 2.60198 18.0932C2.96469 19.4126 3.46405 20.6861 4.09104 21.8906C4.72581 23.1075 5.47403 24.2548 6.32463 25.3155C7.18704 26.3852 8.10736 27.3809 9.10006 28.3264C10.0928 29.272 11.133 30.1478 12.2209 30.9539C13.3197 31.7615 14.4186 32.5 15.5175 33.1696C16.6425 32.4809 17.7389 31.7416 18.8038 30.9539C19.9001 30.15 20.946 29.2723 21.9349 28.3264C22.9276 27.3809 23.85 26.3852 24.7124 25.3155C25.563 24.2548 26.3112 23.1075 26.946 21.8906C27.5698 20.6874 28.0618 19.4134 28.4123 18.0932C28.7792 16.7416 28.9617 15.3419 28.9542 13.9362V7.35229Z" fill="white"/>
<path fill-rule="evenodd" clip-rule="evenodd" d="M23.2107 11.1119L22.3007 10.2883L21.4611 10.3646L12.444 21.5804L9.37281 16.9616L8.54556 16.8135L7.58801 17.5346L7.44531 18.4061L11.3934 24.3452L11.8422 24.6066L12.7873 24.6676L13.2713 24.4454L23.2707 11.9942L23.2107 11.1119Z" fill="white"/>
</svg>
