<svg width="29" height="30" viewBox="0 0 29 30" fill="none" xmlns="http://www.w3.org/2000/svg">
<path d="M14.3017 5.85447C14.3032 5.32249 14.1984 4.79556 13.9933 4.30469C13.7883 3.81381 13.4871 3.36889 13.1076 2.9961C12.7281 2.62331 12.2779 2.33018 11.7834 2.13394C11.2889 1.9377 10.7602 1.84232 10.2284 1.85341C9.69648 1.86449 9.1722 1.98182 8.68634 2.19849C8.20048 2.41517 7.76285 2.72681 7.39919 3.11509C7.03553 3.50337 6.75319 3.96045 6.56877 4.45944C6.38434 4.95844 6.30157 5.48927 6.3253 6.02073C5.54349 6.22175 4.81768 6.59804 4.20283 7.1211C3.58798 7.64417 3.10022 8.30028 2.77649 9.03976C2.45276 9.77924 2.30155 10.5827 2.33431 11.3893C2.36707 12.1958 2.58294 12.9844 2.96557 13.6952C2.2928 14.2417 1.76376 14.9444 1.42448 15.742C1.0852 16.5397 0.945952 17.4082 1.01885 18.2719C1.09174 19.1356 1.37458 19.9685 1.84274 20.698C2.31091 21.4275 2.95023 22.0315 3.70508 22.4576C3.61187 23.1788 3.6675 23.9115 3.86853 24.6103C4.06956 25.3092 4.41174 25.9594 4.87392 26.5209C5.3361 27.0823 5.90847 27.543 6.55569 27.8746C7.20291 28.2062 7.91123 28.4015 8.63691 28.4486C9.36259 28.4957 10.0902 28.3935 10.7749 28.1484C11.4595 27.9033 12.0866 27.5204 12.6175 27.0234C13.1484 26.5264 13.5717 25.9258 13.8614 25.2588C14.151 24.5918 14.3009 23.8724 14.3017 23.1452V5.85447Z" stroke="white" stroke-width="2" stroke-linecap="round" stroke-linejoin="round"/>
<path d="M14.3028 5.85447C14.3012 5.32249 14.406 4.79556 14.6111 4.30469C14.8161 3.81381 15.1173 3.36889 15.4968 2.9961C15.8763 2.62331 16.3265 2.33018 16.821 2.13394C17.3155 1.9377 17.8442 1.84232 18.3761 1.85341C18.9079 1.86449 19.4322 1.98182 19.9181 2.19849C20.4039 2.41517 20.8416 2.72681 21.2052 3.11509C21.5689 3.50337 21.8512 3.96045 22.0356 4.45944C22.2201 4.95844 22.3028 5.48927 22.2791 6.02073C23.0609 6.22175 23.7867 6.59804 24.4016 7.1211C25.0164 7.64417 25.5042 8.30028 25.8279 9.03976C26.1517 9.77924 26.3029 10.5827 26.2701 11.3893C26.2373 12.1958 26.0215 12.9844 25.6388 13.6952C26.3116 14.2417 26.8407 14.9444 27.1799 15.742C27.5192 16.5397 27.6585 17.4082 27.5856 18.2719C27.5127 19.1356 27.2298 19.9685 26.7617 20.698C26.2935 21.4275 25.6542 22.0315 24.8993 22.4576C24.9925 23.1788 24.9369 23.9115 24.7359 24.6103C24.5348 25.3092 24.1927 25.9594 23.7305 26.5209C23.2683 27.0823 22.6959 27.543 22.0487 27.8746C21.4015 28.2062 20.6932 28.4015 19.9675 28.4486C19.2418 28.4957 18.5142 28.3935 17.8296 28.1484C17.1449 27.9033 16.5178 27.5204 15.9869 27.0234C15.4561 26.5264 15.0327 25.9258 14.743 25.2588C14.4534 24.5918 14.3035 23.8724 14.3028 23.1452V5.85447Z" stroke="white" stroke-width="2" stroke-linecap="round" stroke-linejoin="round"/>
<path d="M18.2931 16.495C17.1764 16.1021 16.2013 15.387 15.4911 14.44C14.7808 13.493 14.3673 12.3567 14.3029 11.1747C14.2384 12.3567 13.825 13.493 13.1147 14.44C12.4045 15.387 11.4294 16.1021 10.3127 16.495M21.7499 7.84958C22.0718 7.29174 22.2539 6.66426 22.2806 6.02075M6.32653 6.02075C6.35283 6.66415 6.53445 7.29162 6.85589 7.84958M2.9668 13.6965C3.21012 13.4983 3.47049 13.3221 3.74488 13.1698M24.8609 13.1698C25.1353 13.3221 25.3957 13.4983 25.639 13.6965M6.32254 23.1453C5.4059 23.1457 4.5047 22.9093 3.70631 22.4589M24.8995 22.4589C24.1011 22.9093 23.1999 23.1457 22.2832 23.1453" stroke="white" stroke-width="2" stroke-linecap="round" stroke-linejoin="round"/>
</svg>
