<svg width="31" height="31" viewBox="0 0 31 31" fill="none" xmlns="http://www.w3.org/2000/svg">
<path d="M12.13 20.7875C12.0048 20.3022 11.7518 19.8592 11.3973 19.5047C11.0429 19.1503 10.5999 18.8973 10.1145 18.772L1.5098 16.5532C1.36299 16.5115 1.23379 16.4231 1.14178 16.3014C1.04978 16.1796 1 16.0312 1 15.8786C1 15.726 1.04978 15.5775 1.14178 15.4558C1.23379 15.334 1.36299 15.2456 1.5098 15.2039L10.1145 12.9837C10.5997 12.8586 11.0426 12.6058 11.397 12.2516C11.7515 11.8974 12.0046 11.4547 12.13 10.9696L14.3489 2.36483C14.3901 2.21744 14.4785 2.0876 14.6004 1.9951C14.7223 1.90261 14.8712 1.85254 15.0242 1.85254C15.1773 1.85254 15.3261 1.90261 15.448 1.9951C15.57 2.0876 15.6583 2.21744 15.6995 2.36483L17.917 10.9696C18.0422 11.455 18.2952 11.8979 18.6497 12.2524C19.0041 12.6068 19.4471 12.8598 19.9325 12.9851L28.5372 15.2025C28.6852 15.2433 28.8157 15.3316 28.9087 15.4537C29.0017 15.5758 29.052 15.7251 29.052 15.8786C29.052 16.0321 29.0017 16.1813 28.9087 16.3034C28.8157 16.4255 28.6852 16.5138 28.5372 16.5546L19.9325 18.772C19.4471 18.8973 19.0041 19.1503 18.6497 19.5047C18.2952 19.8592 18.0422 20.3022 17.917 20.7875L15.6981 29.3923C15.6569 29.5397 15.5686 29.6695 15.4466 29.762C15.3247 29.8545 15.1759 29.9046 15.0228 29.9046C14.8698 29.9046 14.7209 29.8545 14.599 29.762C14.477 29.6695 14.3887 29.5397 14.3475 29.3923L12.13 20.7875Z" stroke="white" stroke-width="2" stroke-linecap="round" stroke-linejoin="round"/>
</svg>
