<svg width="32" height="33" viewBox="0 0 32 33" fill="none" xmlns="http://www.w3.org/2000/svg">
<path d="M8.37804 13.5571V31.1138M20.1829 7.52923L18.7073 13.5571H27.3101C27.7682 13.5571 28.2201 13.6628 28.6299 13.866C29.0397 14.0691 29.3962 14.3641 29.6711 14.7275C29.946 15.0909 30.1317 15.5128 30.2137 15.9597C30.2957 16.4067 30.2715 16.8664 30.1432 17.3025L26.7051 29.007C26.5263 29.6148 26.1535 30.1487 25.6426 30.5286C25.1318 30.9085 24.5105 31.1138 23.8719 31.1138H3.95122C3.1685 31.1138 2.41785 30.8055 1.86439 30.2568C1.31093 29.708 1 28.9638 1 28.1877V16.4832C1 15.7071 1.31093 14.9629 1.86439 14.4141C2.41785 13.8653 3.1685 13.5571 3.95122 13.5571H8.02389C8.57294 13.5568 9.11102 13.4046 9.57764 13.1177C10.0443 12.8308 10.4209 12.4206 10.6652 11.9331L15.7561 1.85254C16.4519 1.86108 17.1369 2.02543 17.7597 2.3333C18.3825 2.64116 18.9271 3.0846 19.3527 3.63046C19.7784 4.17632 20.0742 4.81051 20.2179 5.48562C20.3617 6.16074 20.3497 6.85934 20.1829 7.52923Z" stroke="white" stroke-width="2" stroke-linecap="round" stroke-linejoin="round"/>
</svg>
