<svg width="43" height="37" viewBox="0 0 43 37" fill="none" xmlns="http://www.w3.org/2000/svg">
<path fill-rule="evenodd" clip-rule="evenodd" d="M22.5945 5.74625C27.4665 7.53868 31.25 12.1751 31.242 18.1739C31.242 18.2006 31.2515 18.2171 31.271 18.2238C31.2781 18.2265 31.2865 18.2277 31.2962 18.2277L35.8123 18.2245C35.8498 18.2245 35.8681 18.206 35.8692 18.1679C35.9422 12.7801 33.4167 7.55732 29.2682 4.20888C27.6664 2.91604 25.9485 1.94139 24.1143 1.28503C22.2294 0.610291 20.2216 0.271749 18.0915 0.269544C8.12707 0.257586 0.0822801 8.66673 0.414212 18.7686C0.663882 26.3738 5.50737 32.7106 12.2284 35.1147C14.0673 35.7726 16.0469 36.1361 18.1114 36.1505C18.1447 36.1505 18.1618 36.1332 18.1618 36.0995L18.1694 31.5509C18.1694 31.5342 18.1632 31.5181 18.1519 31.5062C18.1448 31.4987 18.1363 31.4932 18.1268 31.4899C18.1206 31.4877 18.1142 31.4863 18.1076 31.4861C16.5304 31.4277 15.0684 31.1578 13.7216 30.6763C11.4816 29.875 9.56037 28.4883 7.95788 26.5162C2.99286 20.4031 4.58162 11.1787 11.1644 6.99091C14.798 4.67974 18.9038 4.43583 22.4514 5.69457C22.4992 5.71153 22.5469 5.72875 22.5945 5.74625Z" fill="#2174F5"/>
<path fill-rule="evenodd" clip-rule="evenodd" d="M33.1009 36.5612C33.1077 36.5661 33.1155 36.5692 33.1238 36.5704C33.1278 36.5714 33.1319 36.5719 33.136 36.5719H42.6858C42.6941 36.5719 42.7023 36.5699 42.7098 36.566C42.7143 36.5635 42.7186 36.5604 42.7223 36.5567L42.7252 36.5535L42.7283 36.5494C42.733 36.5425 42.7361 36.5345 42.737 36.5261C42.7381 36.5176 42.737 36.5091 42.7341 36.5012L36.7711 20.2711C36.7674 20.2611 36.7608 20.2526 36.7521 20.2466C36.7455 20.2419 36.7379 20.239 36.73 20.2378C36.7259 20.2369 36.7217 20.2363 36.7173 20.2363H27.2943C27.2861 20.2362 27.2778 20.2381 27.2703 20.2419C27.263 20.2457 27.2565 20.2512 27.2517 20.258C27.2468 20.2649 27.2437 20.2728 27.2425 20.2812C27.2413 20.2894 27.2422 20.298 27.2449 20.3059L33.0822 36.5361C33.0857 36.5461 33.0922 36.5549 33.1009 36.5612ZM15.8673 20.2904C15.8617 20.2905 15.8561 20.2918 15.8511 20.2945C15.8461 20.2971 15.8418 20.301 15.8385 20.3056C15.8352 20.3103 15.8331 20.3157 15.8324 20.3214C15.8316 20.3271 15.8322 20.3329 15.8341 20.3382L21.6692 36.5738C21.6717 36.5808 21.6761 36.5868 21.6821 36.5911C21.6841 36.5926 21.6862 36.5938 21.6885 36.5947C21.6917 36.5962 21.6951 36.5971 21.6986 36.5975C21.7017 36.5984 21.7048 36.5988 21.708 36.5988H31.2942C31.2972 36.5987 31.3 36.5983 31.3029 36.5975C31.3055 36.5968 31.3082 36.5957 31.3106 36.5944C31.3155 36.5916 31.3198 36.5877 31.3229 36.5828C31.3261 36.578 31.3281 36.5725 31.3287 36.5669C31.3294 36.5611 31.3285 36.5553 31.3265 36.5499L25.3624 20.3143C25.3599 20.3075 25.3552 20.3018 25.3493 20.2977C25.3446 20.2944 25.3391 20.2923 25.3334 20.2917L25.3301 20.2909C25.328 20.2906 25.3258 20.2904 25.3237 20.2904H15.8673Z" fill="black"/>
</svg>
